#tb 0: 1/25
#media_type 0: video
#codec_id 0: rawvideo
#dimensions 0: 176x288
#sar 0: 0/1
0,          0,          0,        1,   152064, 0x2707c69f
0,          1,          1,        1,   152064, 0xbcc43bbd
0,          2,          2,        1,   152064, 0x049f6974
0,          3,          3,        1,   152064, 0x9ba02f9e
0,          4,          4,        1,   152064, 0xcf8c3cfd
